<svg width="85" height="85" viewBox="0 0 85 85" fill="none" xmlns="http://www.w3.org/2000/svg">
<path d="M42.5 0C19.0222 0 0 19.0222 0 42.5C0 65.9778 19.0222 85 42.5 85C65.9778 85 85 65.9778 85 42.5C85 19.0222 65.9778 0 42.5 0ZM42.5 16.4516C50.8286 16.4516 57.5806 23.2036 57.5806 31.5323C57.5806 39.8609 50.8286 46.6129 42.5 46.6129C34.1714 46.6129 27.4194 39.8609 27.4194 31.5323C27.4194 23.2036 34.1714 16.4516 42.5 16.4516ZM42.5 75.4032C32.4405 75.4032 23.4264 70.8448 17.3942 63.7157C20.6159 57.6492 26.9224 53.4677 34.2742 53.4677C34.6855 53.4677 35.0968 53.5363 35.4909 53.6563C37.7188 54.376 40.0494 54.8387 42.5 54.8387C44.9506 54.8387 47.2984 54.376 49.5091 53.6563C49.9032 53.5363 50.3145 53.4677 50.7258 53.4677C58.0776 53.4677 64.3841 57.6492 67.6058 63.7157C61.5736 70.8448 52.5595 75.4032 42.5 75.4032Z" fill="#27C5CF"/>
</svg>
