<svg width="95" height="42" viewBox="0 0 95 42" fill="none" xmlns="http://www.w3.org/2000/svg">
<path d="M0 0H3.48163V27.2853C3.48163 27.7337 3.63731 28.1261 3.94867 28.4625C4.28834 28.7708 4.68463 28.9249 5.13752 28.9249H9.29849V32.3724H5.13752C3.72222 32.3724 2.50507 31.8819 1.48606 30.9009C0.495353 29.8919 0 28.6867 0 27.2853V0Z" fill="#828DF1"/>
<path d="M17.4927 7.98799H32.2684C33.712 7.98799 34.9291 8.49249 35.9199 9.5015C36.9389 10.4825 37.4484 11.6737 37.4484 13.0751V27.2853C37.4484 28.6867 36.9389 29.8919 35.9199 30.9009C34.9291 31.8819 33.712 32.3724 32.2684 32.3724H17.4927C16.0774 32.3724 14.8603 31.8819 13.8413 30.9009C12.8505 29.8919 12.3552 28.6867 12.3552 27.2853V13.0751C12.3552 11.6737 12.8505 10.4825 13.8413 9.5015C14.8603 8.49249 16.0774 7.98799 17.4927 7.98799ZM32.2684 11.4354H17.4927C17.0398 11.4354 16.6435 11.6036 16.3039 11.9399C15.9925 12.2482 15.8368 12.6266 15.8368 13.0751V27.2853C15.8368 27.7337 15.9925 28.1261 16.3039 28.4625C16.6435 28.7708 17.0398 28.9249 17.4927 28.9249H32.2684C32.7213 28.9249 33.1034 28.7708 33.4148 28.4625C33.7544 28.1261 33.9243 27.7337 33.9243 27.2853V13.0751C33.9243 12.6266 33.7544 12.2482 33.4148 11.9399C33.1034 11.6036 32.7213 11.4354 32.2684 11.4354Z" fill="#828DF1"/>
<path d="M66.3791 36.8709C66.3791 38.3003 65.8837 39.5055 64.893 40.4865C63.9023 41.4955 62.6852 42 61.2416 42H45.8715V38.5105H61.2416C61.6945 38.5105 62.0766 38.3423 62.388 38.006C62.7276 37.6977 62.8975 37.3193 62.8975 36.8709V32.3724H46.4659C45.0506 32.3724 43.8334 31.8819 42.8144 30.9009C41.8237 29.8919 41.3284 28.6867 41.3284 27.2853V13.0751C41.3284 11.6737 41.8237 10.4825 42.8144 9.5015C43.8334 8.49249 45.0506 7.98799 46.4659 7.98799H61.2416C62.6852 7.98799 63.9023 8.49249 64.893 9.5015C65.8837 10.4825 66.3791 11.6737 66.3791 13.0751V36.8709ZM46.4659 28.9249H61.2416C61.6945 28.9249 62.0766 28.7708 62.388 28.4625C62.7276 28.1261 62.8975 27.7337 62.8975 27.2853V13.0751C62.8975 12.6266 62.7276 12.2482 62.388 11.9399C62.0766 11.6036 61.6945 11.4354 61.2416 11.4354H46.4659C46.013 11.4354 45.6167 11.6036 45.277 11.9399C44.9657 12.2482 44.81 12.6266 44.81 13.0751V27.2853C44.81 27.7337 44.9657 28.1261 45.277 28.4625C45.6167 28.7708 46.013 28.9249 46.4659 28.9249Z" fill="#828DF1"/>
<path d="M75.0443 7.98799H89.82C91.2636 7.98799 92.4808 8.49249 93.4715 9.5015C94.4905 10.4825 95 11.6737 95 13.0751V27.2853C95 28.6867 94.4905 29.8919 93.4715 30.9009C92.4808 31.8819 91.2636 32.3724 89.82 32.3724H75.0443C73.629 32.3724 72.4119 31.8819 71.3929 30.9009C70.4022 29.8919 69.9068 28.6867 69.9068 27.2853V13.0751C69.9068 11.6737 70.4022 10.4825 71.3929 9.5015C72.4119 8.49249 73.629 7.98799 75.0443 7.98799ZM89.82 11.4354H75.0443C74.5914 11.4354 74.1952 11.6036 73.8555 11.9399C73.5441 12.2482 73.3884 12.6266 73.3884 13.0751V27.2853C73.3884 27.7337 73.5441 28.1261 73.8555 28.4625C74.1952 28.7708 74.5914 28.9249 75.0443 28.9249H89.82C90.2729 28.9249 90.655 28.7708 90.9664 28.4625C91.3061 28.1261 91.4759 27.7337 91.4759 27.2853V13.0751C91.4759 12.6266 91.3061 12.2482 90.9664 11.9399C90.655 11.6036 90.2729 11.4354 89.82 11.4354Z" fill="#828DF1"/>
</svg>
